Coordinates
version=1
nRows=8
nColumns=28
inDegrees=yes

Units are S.I. units (second, meters, Newtons, ...)
Angles are in degrees.

endheader
time	pelvis_tilt	pelvis_list	pelvis_rotation	pelvis_tx	pelvis_ty	pelvis_tz	hip_flexion_r	hip_adduction_r	hip_rotation_r	knee_angle_r	ankle_angle_r	subtalar_angle_r	mtp_angle_r	hip_flexion_l	hip_adduction_l	hip_rotation_l	knee_angle_l	socket_flexion	socket_adduction	socket_rotation	socket_tx	socket_ty	socket_tz	foot_flex	lumbar_extension	lumbar_bending	lumbar_rotation
      0.82083333	     -0.24353861	     -6.17794067	      7.65972574	      0.35077502	      0.98449521	      0.22546816	      7.97794387	     12.87213717	      2.18742827	    -19.71386026	      2.93120494	    -22.13119665	      1.96921091	     24.82901672	     -9.33526542	     -4.50546266	    -66.68283465	      3.22766389	     -9.60104860	     -7.13295344	      0.00000000	      0.00955640	      0.00000000	     -1.24237641	     -6.77780934	      6.03887351	     -8.96430273
      0.82500000	     -0.33512015	     -5.96628255	      7.55753218	      0.35617338	      0.98559281	      0.22509226	      7.39340602	     12.63856560	      2.36159238	    -19.20298492	      2.88677131	    -22.00813977	      2.01179684	     25.59596261	     -8.85759248	     -4.36670822	    -66.55259482	      3.08069255	     -9.62225361	     -6.62154073	      0.00000000	      0.01041094	      0.00000000	     -1.25787417	     -6.73919583	      5.79945769	     -8.83022317
      0.82916667	     -0.40473141	     -5.77388118	      7.42265256	      0.36147252	      0.98665209	      0.22474652	      6.84156972	     12.42591796	      2.53470368	    -18.78776352	      2.82623517	    -21.89686587	      2.04752253	     26.31898309	     -8.40691151	     -4.20915990	    -66.38155813	      2.92452757	     -9.60677059	     -6.18267640	      0.00000000	      0.01118107	      0.00000000	     -1.27743473	     -6.72955219	      5.61459369	     -8.71058853
      0.83333333	     -0.49720675	     -5.57506138	      7.30395483	      0.36697176	      0.98769711	      0.22437850	      6.25000493	     12.19844987	      2.69463609	    -18.25038524	      2.69463487	    -21.78012949	      2.09312324	     27.01466493	     -7.95385868	     -4.08806162	    -66.13490663	      2.71876763	     -9.61181452	     -5.86885206	      0.00000000	      0.01196460	      0.00000000	     -1.28696114	     -6.66844387	      5.38317928	     -8.56076103
      0.83750000	     -0.55560397	     -5.39804969	      7.15854958	      0.37216603	      0.98867958	      0.22410164	      5.73000560	     12.00995836	      2.88023734	    -17.88648769	      2.62139804	    -21.69147184	      2.12884655	     27.69279898	     -7.52890015	     -3.90897470	    -65.87903619	      2.51574835	     -9.56779182	     -5.59915239	      0.00000000	      0.01271329	      0.00000000	     -1.30581976	     -6.69606232	      5.21136116	     -8.44892107
      0.84166667	     -0.64280171	     -5.21435674	      7.02282917	      0.37754924	      0.98964200	      0.22370726	      5.18210015	     11.79415900	      3.05771502	    -17.42619216	      2.52770334	    -21.60525270	      2.16298694	     28.35833897	     -7.08449239	     -3.75556945	    -65.57149885	      2.26396775	     -9.53364823	     -5.45741597	      0.00000000	      0.01353877	      0.00000000	     -1.31517916	     -6.65942675	      5.03254843	     -8.32051706
      0.84583333	     -0.72375819	     -5.03012640	      6.88873922	      0.38289834	      0.99058554	      0.22338168	      4.64077995	     11.58841458	      3.24816519	    -16.98204607	      2.40286135	    -21.52228964	      2.19629779	     28.99541421	     -6.64579250	     -3.58313753	    -65.21823063	      1.99307809	     -9.48307534	     -5.38300239	      0.00000000	      0.01434197	      0.00000000	     -1.32721930	     -6.62897703	      4.84389809	     -8.19254357
      0.85000000	     -0.80647455	     -4.85668538	      6.74258997	      0.38830784	      0.99148803	      0.22306830	      4.10617580	     11.39010504	      3.43252295	    -16.54078424	      2.25370998	    -21.45617259	      2.22935923	     29.59384050	     -6.22305219	     -3.39515182	    -64.80438804	      1.70097775	     -9.40486174	     -5.40538037	      0.00000000	      0.01506019	      0.00000000	     -1.33456584	     -6.59021029	      4.66368426	     -8.06162793
